General
Complete name                    : The Horse Whisperer.mkv
Format                           : Matroska
File size                        : 1.43 GiB
Duration                         : 2h 42mn
Overall bit rate                 : 1 257 Kbps
Writing application              : HandBrake 0.9.4

Video
ID                               : 1
Format                           : AVC
Duration                         : 2h 42mn
Bit rate                         : 848 Kbps
Width                            : 702 pixels
Height                           : 434 pixels
Display aspect ratio             : 2.25:1
Resolution                       : 8 bits
Colorimetry                      : 4:2:0
Scan type                        : Progressive
Bits/(Pixel*Frame)               : 0.111
Stream size                      : 985 MiB (67%)
Writing library                  : x264 core 79


Audio
ID                               : 2
Format                           : AC-3
Format/Info                      : Audio Coding 3
Codec ID                         : A_AC3
Duration                         : 2h 42mn
Bit rate mode                    : Constant
Bit rate                         : 384 Kbps
Channel(s)                       : 6 channels
Channel positions                : Front: L C R, Side: L R, LFE
Sampling rate                    : 48.0 KHz
Stream size                      : 446 MiB (31%)
Language                         : English

Text #1
Language                         : English

Text #2
Language                         : Italian

Text #3
Language                         : French

Text #4
Language                         : Portuguese

Text #5
Language                         : Icelandic

Text #6
Language                         : Spanish

Text #7
Language                         : German

Text #8
Language                         : Finnish

Text #9
Language                         : Norwegian

Text #10
Language                         : Danish

Text #11                         
Language                         : Hebrew

Text #12
Language                         : English

Text #13
Language                         : German

Text #14
Language                         : Swedish

Menu
00:00:00.000                     : Chapter 1
00:07:14.360                     : Chapter 2


